# xmcd
#
# Track frame offsets: 
#        150
#        13753
#        32246
#        46795
#        59412
#        70826
#        83622
#        98695
#        113401
#        124725
#
# Disc length: 1806 seconds
#
# Revision: 0
# Processed by: cddbd v1.5.2PL0 Copyright (c) Steve Scherf et al.
# Submitted via: ExactAudioCopy v1.1
#
DISCID=75070c0a
DTITLE=Johnny Cash  - One Piece At A Time
DYEAR=1976
DGENRE=Country
TTITLE0=Let There Be Country
TTITLE1=One Piece At A Time
TTITLE2=In A Young Girl's Mind
TTITLE3=Mountain Lady
TTITLE4=Michigan City Howdy Do
TTITLE5=Sold Out Of Flagpoles
TTITLE6=Committed To Parkview
TTITLE7=Daughter Of A Railroad Man
TTITLE8=Love Has Lost Again
TTITLE9=Go On Blues
EXTD=
EXTT0=
EXTT1=
EXTT2=
EXTT3=
EXTT4=
EXTT5=
EXTT6=
EXTT7=
EXTT8=
EXTT9=
PLAYORDER=
